<?xml version="1.0" standalone="no"?>
<!DOCTYPE svg PUBLIC "-//W3C//DTD SVG 20010904//EN"
 "http://www.w3.org/TR/2001/REC-SVG-20010904/DTD/svg10.dtd">
<svg version="1.0" xmlns="http://www.w3.org/2000/svg"
 width="235.000000pt" height="145.000000pt" viewBox="0 0 235.000000 145.000000"
 preserveAspectRatio="xMidYMid meet">

<g transform="translate(0.000000,145.000000) scale(0.100000,-0.100000)"
fill="#000000" stroke="none">
<path d="M1632 1399 c-7 -19 -9 -19 -21 -5 -31 37 -92 8 -122 -58 -23 -51 -25
-143 -3 -174 28 -41 92 -25 114 28 l13 32 13 -31 c19 -46 50 -42 74 12 11 23
19 51 19 62 0 11 -8 -2 -17 -30 -10 -30 -23 -50 -32 -50 -17 0 -18 16 -7 148
6 75 5 87 -8 87 -9 0 -19 -9 -23 -21z m-26 -24 c30 -46 -1 -191 -48 -219 -43
-26 -64 69 -37 169 20 74 56 94 85 50z"/>
<path d="M481 1361 c-10 -10 -21 -41 -25 -71 -12 -91 -45 -130 -108 -130 -20
0 -21 4 -14 77 6 79 14 93 54 93 12 0 22 5 22 10 0 13 -1 13 -88 -4 -78 -15
-103 -26 -59 -26 19 0 27 -5 27 -17 0 -34 -30 -338 -35 -350 -2 -7 -16 -13
-30 -13 -14 0 -25 -4 -25 -10 0 -13 0 -13 94 5 91 17 106 25 51 25 l-37 0 7
88 c4 48 10 90 13 93 4 4 24 9 44 12 56 8 68 -9 68 -98 0 -65 3 -76 21 -85 45
-25 100 21 99 82 -1 19 -3 17 -16 -12 -31 -71 -54 -62 -54 21 0 50 -4 64 -25
84 -13 14 -29 25 -34 25 -6 0 1 16 14 36 17 25 25 51 25 78 0 45 22 86 46 86
16 0 19 -26 4 -35 -15 -10 -12 -45 5 -51 23 -9 45 15 45 47 0 53 -52 77 -89
40z"/>
<path d="M1288 1343 c-14 -16 -29 -39 -33 -53 -5 -20 -2 -18 15 10 27 41 38
50 67 50 24 0 38 -29 28 -60 -3 -11 -26 -34 -51 -50 -65 -46 -82 -90 -46 -123
22 -20 70 -22 92 -4 24 18 50 59 50 77 -1 8 -10 -2 -21 -22 -31 -59 -99 -66
-99 -10 0 33 10 47 68 91 34 27 42 39 42 65 0 40 -15 56 -55 56 -21 0 -40 -9
-57 -27z"/>
<path d="M1098 1248 c-13 -55 -15 -85 -8 -121 14 -71 26 -82 63 -54 20 14 51
107 37 107 -6 0 -10 -9 -10 -20 0 -28 -28 -80 -42 -80 -8 0 -9 34 -4 120 5 96
4 120 -7 120 -8 0 -19 -27 -29 -72z"/>
<path d="M935 1277 c-8 -13 -17 -39 -20 -58 -5 -31 -4 -31 12 11 11 27 26 46
37 48 17 4 18 0 11 -44 -5 -27 -9 -78 -9 -113 -1 -50 3 -66 17 -75 12 -8 22
-8 35 0 21 13 62 83 61 104 0 8 -7 -1 -16 -20 -19 -44 -42 -70 -61 -70 -12 0
-13 9 -8 48 17 113 18 162 6 177 -18 22 -47 18 -65 -8z"/>
<path d="M796 1248 c-3 -13 -6 -39 -6 -59 0 -33 -3 -37 -31 -43 -55 -11 -59
-8 -59 30 0 105 -83 95 -95 -12 l-5 -39 11 42 c11 45 34 72 49 57 6 -6 6 -44
0 -99 -13 -120 -12 -135 4 -135 14 0 26 42 26 95 0 34 16 45 68 45 18 0 22 -5
22 -34 0 -107 64 -115 95 -13 8 26 10 47 6 47 -5 0 -11 -16 -14 -36 -6 -38
-23 -64 -40 -64 -7 0 -8 40 -4 120 6 98 4 120 -7 120 -7 0 -16 -10 -20 -22z"/>
<path d="M2161 805 c-54 -62 -63 -154 -19 -210 50 -64 170 14 142 93 -5 15
-19 31 -31 37 -21 11 -21 11 -2 23 24 15 35 58 19 77 -7 8 -27 15 -45 15 -25
0 -40 -8 -64 -35z m77 -8 c4 -33 -10 -52 -51 -74 l-30 -15 6 37 c13 77 68 115
75 52z m0 -99 c19 -19 14 -76 -8 -98 -37 -37 -63 -22 -76 44 -5 32 -3 42 11
53 23 16 57 17 73 1z"/>
<path d="M1912 758 c-60 -61 -65 -184 -9 -223 35 -25 66 -18 107 23 81 81 59
232 -34 232 -25 0 -42 -9 -64 -32z m95 -8 c28 -56 1 -192 -42 -212 -33 -15
-52 2 -60 55 -7 47 9 131 31 165 19 30 54 26 71 -8z"/>
<path d="M1685 724 c-13 -14 -31 -44 -39 -67 l-14 -42 -1 41 c-1 22 -6 45 -13
52 -20 20 -56 14 -69 -10 -12 -22 -11 -23 8 -5 36 32 43 5 31 -116 -5 -60 -8
-111 -5 -114 13 -13 26 12 41 79 28 126 82 217 106 179 4 -7 1 -38 -6 -69 -19
-78 -18 -137 2 -157 9 -9 21 -14 28 -12 20 6 56 69 55 96 -1 22 -3 20 -11 -11
-10 -38 -43 -76 -55 -64 -4 3 0 44 9 90 16 83 15 118 -5 144 -15 19 -36 14
-62 -14z"/>
<path d="M1425 676 c-9 -13 -18 -41 -21 -62 -5 -38 -4 -37 13 11 11 30 24 50
33 50 17 0 17 -8 6 -142 -6 -80 -5 -93 8 -93 10 0 17 13 21 38 3 20 16 66 27
102 30 93 31 100 8 55 l-19 -40 -1 33 c0 69 -44 96 -75 48z"/>
<path d="M1250 663 c-12 -9 -33 -39 -46 -67 -23 -50 -24 -50 -24 -18 0 104
-83 91 -95 -14 l-5 -39 11 42 c11 45 34 72 49 57 6 -6 6 -44 0 -99 -13 -122
-13 -135 5 -135 9 0 17 14 21 38 19 115 69 232 98 232 22 0 24 -20 10 -80 -27
-113 -13 -181 35 -165 22 7 51 62 51 97 -1 15 -7 5 -18 -27 -10 -31 -24 -51
-34 -53 -22 -4 -23 11 -4 102 23 109 -1 166 -54 129z"/>
<path d="M922 588 c-97 -98 -31 -297 74 -223 23 15 59 83 50 92 -2 3 -11 -11
-20 -30 -30 -73 -96 -83 -110 -16 -10 52 -8 57 37 77 58 26 79 52 75 94 -3 30
-6 33 -39 36 -29 2 -41 -3 -67 -30z m86 -9 c4 -33 -32 -76 -70 -84 -26 -7 -26
-6 -18 29 12 54 37 88 63 84 15 -2 23 -11 25 -29z"/>
<path d="M727 498 c-13 -57 -14 -83 -6 -118 12 -52 27 -73 47 -65 10 4 12 0 8
-11 -3 -8 -6 -35 -6 -58 0 -35 -4 -45 -22 -54 -19 -9 -20 -11 -5 -11 10 -1 29
10 42 23 21 21 24 31 18 73 -3 32 0 65 11 97 9 27 15 51 12 53 -3 3 -10 -13
-15 -35 -6 -22 -18 -45 -26 -52 -24 -20 -28 9 -21 126 6 85 5 104 -6 104 -9 0
-20 -26 -31 -72z"/>
<path d="M565 527 c-8 -13 -17 -39 -20 -58 -5 -31 -4 -31 12 11 11 27 26 46
37 48 17 4 18 0 11 -44 -5 -27 -9 -78 -9 -113 -1 -50 3 -66 17 -75 12 -8 22
-8 35 0 21 13 62 83 61 104 0 8 -7 -1 -16 -20 -19 -44 -42 -70 -61 -70 -12 0
-13 9 -8 48 17 113 18 162 6 177 -18 22 -47 18 -65 -8z"/>
<path d="M372 488 c-97 -98 -31 -297 74 -223 23 15 59 83 50 92 -2 3 -11 -11
-20 -30 -30 -73 -96 -83 -110 -16 -10 52 -8 57 37 77 58 26 79 52 75 94 -3 30
-6 33 -39 36 -29 2 -41 -3 -67 -30z m86 -9 c4 -33 -32 -76 -70 -84 -26 -7 -26
-6 -18 29 12 54 37 88 63 84 15 -2 23 -11 25 -29z"/>
<path d="M148 463 c-8 -10 -20 -27 -26 -38 -10 -19 -11 -19 -21 8 -21 55 -76
16 -95 -66 -4 -17 -3 -26 2 -23 6 3 13 21 16 40 7 35 31 64 43 52 7 -7 -15
-345 -24 -358 -2 -5 -13 -8 -24 -8 -10 0 -19 -5 -19 -11 0 -6 8 -8 18 -5 9 3
44 10 76 15 70 13 89 25 31 19 l-40 -3 4 75 c2 41 5 77 7 79 1 2 10 -4 19 -13
54 -54 137 33 139 145 1 69 -22 109 -63 109 -15 0 -35 -8 -43 -17z m65 -33
c11 -41 -6 -153 -29 -187 -18 -28 -50 -30 -64 -4 -23 44 -4 172 32 211 27 29
50 22 61 -20z"/>
</g>
</svg>
