<?xml version="1.0" standalone="no"?>
<!DOCTYPE svg PUBLIC "-//W3C//DTD SVG 20010904//EN"
 "http://www.w3.org/TR/2001/REC-SVG-20010904/DTD/svg10.dtd">
<svg version="1.0" xmlns="http://www.w3.org/2000/svg"
 width="121.000000pt" height="47.000000pt" viewBox="0 0 121.000000 47.000000"
 preserveAspectRatio="xMidYMid meet">

<g transform="translate(0.000000,47.000000) scale(0.100000,-0.100000)"
fill="#000000" stroke="none">
<path d="M292 458 c-7 -7 -12 -22 -12 -34 0 -36 -11 -54 -32 -54 -18 0 -20 6
-16 45 3 42 2 45 -22 45 l-25 0 3 -99 c3 -89 1 -100 -15 -104 -10 -3 7 -5 37
-5 30 0 47 2 38 5 -14 3 -18 15 -18 54 0 47 2 50 23 47 18 -2 23 -11 28 -51 7
-62 32 -82 63 -51 17 17 22 49 6 39 -5 -3 -10 -13 -10 -21 0 -8 -4 -12 -10 -9
-5 3 -10 22 -10 41 0 21 -6 38 -18 45 -13 8 -16 21 -14 50 2 22 8 42 13 45 5
3 8 -5 6 -18 -2 -27 21 -31 36 -6 20 31 -24 63 -51 36z"/>
<path d="M753 393 c-19 -4 -22 -12 -25 -74 -3 -68 -3 -69 22 -69 24 0 25 1 22
65 -4 70 4 79 38 43 16 -18 20 -19 20 -6 0 20 -27 49 -43 47 -7 -1 -22 -4 -34
-6z"/>
<path d="M878 389 c-22 -12 -24 -49 -3 -49 8 0 15 9 15 20 0 11 7 20 15 20 26
0 15 -34 -18 -55 -22 -14 -32 -28 -32 -45 0 -24 3 -25 59 -25 44 0 60 4 63 15
4 13 3 13 -6 0 -8 -11 -11 -2 -11 38 0 73 -36 108 -82 81z m38 -115 c-3 -8
-10 -14 -16 -14 -14 0 -13 43 3 59 10 10 13 8 15 -9 2 -12 1 -28 -2 -36z"/>
<path d="M388 329 c3 -44 0 -64 -10 -70 -9 -6 -3 -9 17 -9 29 0 31 2 27 35 -4
32 -2 35 23 35 25 0 27 -3 23 -35 -4 -33 -2 -35 27 -35 20 0 26 3 17 9 -10 6
-13 26 -10 70 3 56 1 61 -18 61 -17 0 -20 -5 -16 -30 4 -27 2 -30 -23 -30 -25
0 -27 3 -23 30 4 25 1 30 -16 30 -19 0 -21 -5 -18 -61z"/>
<path d="M558 329 c3 -44 0 -64 -10 -70 -9 -6 -2 -9 20 -9 18 0 31 3 29 8 -3
4 6 27 19 52 l24 45 -2 -53 c-3 -52 -3 -52 27 -52 20 0 26 3 17 9 -10 6 -13
26 -10 70 4 79 -17 83 -55 9 l-27 -53 2 53 c3 46 1 52 -17 52 -18 0 -20 -5
-17 -61z"/>
<path d="M1120 224 c-12 -4 -14 -18 -12 -66 3 -43 0 -63 -10 -69 -15 -10 71
-13 96 -3 19 7 21 45 4 63 -10 11 -10 14 0 18 22 8 13 43 -14 53 -26 10 -37
11 -64 4z m53 -26 c6 -19 -3 -38 -19 -38 -8 0 -14 10 -14 25 0 26 25 35 33 13z
m5 -76 c3 -17 -2 -22 -17 -22 -16 0 -21 6 -21 26 0 33 33 30 38 -4z"/>
<path d="M45 213 l-30 -4 3 -96 c3 -71 0 -98 -10 -104 -8 -6 2 -8 27 -8 22 0
34 3 28 6 -7 2 -13 18 -13 34 0 24 4 29 24 29 36 0 56 26 56 71 0 37 -27 82
-47 77 -5 0 -21 -3 -38 -5z m49 -29 c8 -20 8 -68 0 -88 -5 -12 -10 -13 -25 -5
-14 7 -19 21 -19 47 0 51 30 82 44 46z"/>
<path d="M190 200 c-26 -26 -27 -90 -2 -113 24 -22 56 -22 73 0 13 15 12 15
-8 2 -20 -12 -25 -11 -39 3 -26 25 -11 48 31 48 33 0 36 2 29 23 -8 29 -34 57
-51 57 -7 0 -22 -9 -33 -20z m48 -28 c3 -17 -2 -22 -17 -22 -14 0 -21 6 -21
18 0 38 33 41 38 4z"/>
<path d="M510 200 c-26 -26 -27 -90 -2 -113 24 -22 56 -22 73 0 13 15 12 15
-8 3 -18 -11 -24 -12 -37 -1 -9 8 -16 22 -16 32 0 16 8 19 41 19 37 0 40 2 33
23 -8 29 -34 57 -51 57 -7 0 -22 -9 -33 -20z m50 -25 c0 -18 -5 -25 -20 -25
-20 0 -28 28 -13 43 15 16 33 6 33 -18z"/>
<path d="M645 214 c-6 -2 -9 -30 -7 -65 3 -44 0 -64 -10 -70 -9 -6 -3 -9 17
-9 l30 0 -3 65 c-4 65 -4 65 23 65 27 0 27 0 23 -65 l-3 -65 30 0 c20 0 26 3
17 9 -10 6 -13 26 -10 70 2 44 -1 62 -10 66 -16 6 -82 5 -97 -1z"/>
<path d="M803 213 c-7 -2 -13 -17 -12 -31 0 -27 0 -27 11 -4 6 12 17 22 25 22
18 0 19 -116 1 -123 -7 -3 5 -5 27 -5 22 0 34 2 28 5 -9 3 -13 26 -13 64 0 61
13 77 30 37 9 -22 9 -22 9 3 1 19 -5 28 -21 33 -27 7 -68 7 -85 -1z"/>
<path d="M965 195 c-16 -15 -25 -36 -25 -55 0 -31 37 -80 60 -80 6 0 22 11 35
25 33 32 34 83 2 113 -30 28 -42 28 -72 -3z m59 -29 c7 -39 -9 -89 -27 -84
-13 5 -22 80 -13 104 10 26 34 15 40 -20z"/>
<path d="M318 145 c3 -49 0 -65 -10 -67 -7 -1 18 -4 57 -7 61 -5 71 -9 82 -31
l13 -25 0 33 c0 23 -5 32 -16 32 -13 0 -15 11 -12 65 3 59 1 65 -17 65 -18 0
-20 -6 -17 -65 4 -65 4 -65 -23 -65 -27 0 -27 0 -23 65 3 59 1 65 -17 65 -18
0 -20 -6 -17 -65z"/>
</g>
</svg>
